<mxfile host="app.diagrams.net" modified="2021-03-11T01:26:59.162Z" agent="5.0 (Windows NT 10.0; Win64; x64) AppleWebKit/537.36 (KHTML, like Gecko) Chrome/88.0.4324.104 Safari/537.36" etag="XTdShu4b-uhIuAuLF39z" version="14.4.3" type="github" pages="4">
  <diagram name="权益订单查询管理" id="13e1069c-82ec-6db2-03f1-153e76fe0fe0">
    <mxGraphModel dx="1182" dy="582" grid="1" gridSize="10" guides="1" tooltips="1" connect="1" arrows="1" fold="1" page="1" pageScale="1" pageWidth="1100" pageHeight="850" background="#ffffff" math="0" shadow="0">
      <root>
        <mxCell id="0" />
        <mxCell id="1" parent="0" />
        <mxCell id="mMHkHMFLhKj_bVexpWxE-1" value="权益订单查询管理" style="shape=umlFrame;whiteSpace=wrap;html=1;width=120;height=30;boundedLbl=1;verticalAlign=middle;align=left;spacingLeft=5;" vertex="1" parent="1">
          <mxGeometry x="80" y="20" width="960" height="1550" as="geometry" />
        </mxCell>
        <mxCell id="mMHkHMFLhKj_bVexpWxE-2" value="权益运营平台" style="shape=umlLifeline;perimeter=lifelinePerimeter;whiteSpace=wrap;html=1;container=1;collapsible=0;recursiveResize=0;outlineConnect=0;rounded=1;shadow=0;comic=0;labelBackgroundColor=none;strokeWidth=1;fontFamily=Verdana;fontSize=12;align=center;" vertex="1" parent="1">
          <mxGeometry x="500" y="80" width="100" height="1460" as="geometry" />
        </mxCell>
        <mxCell id="mMHkHMFLhKj_bVexpWxE-3" value="" style="html=1;points=[];perimeter=orthogonalPerimeter;rounded=0;shadow=0;comic=0;labelBackgroundColor=none;strokeWidth=1;fontFamily=Verdana;fontSize=12;align=center;" vertex="1" parent="mMHkHMFLhKj_bVexpWxE-2">
          <mxGeometry x="45" y="100" width="10" height="180" as="geometry" />
        </mxCell>
        <mxCell id="mMHkHMFLhKj_bVexpWxE-4" value="MYSQL" style="shape=umlLifeline;perimeter=lifelinePerimeter;whiteSpace=wrap;html=1;container=1;collapsible=0;recursiveResize=0;outlineConnect=0;rounded=1;shadow=0;comic=0;labelBackgroundColor=none;strokeWidth=1;fontFamily=Verdana;fontSize=12;align=center;" vertex="1" parent="1">
          <mxGeometry x="820" y="80" width="100" height="1460" as="geometry" />
        </mxCell>
        <mxCell id="mMHkHMFLhKj_bVexpWxE-5" value="" style="html=1;points=[];perimeter=orthogonalPerimeter;rounded=0;shadow=0;comic=0;labelBackgroundColor=none;strokeWidth=1;fontFamily=Verdana;fontSize=12;align=center;" vertex="1" parent="mMHkHMFLhKj_bVexpWxE-4">
          <mxGeometry x="45" y="120" width="10" height="110" as="geometry" />
        </mxCell>
        <mxCell id="mMHkHMFLhKj_bVexpWxE-6" value="能力开放平台" style="shape=umlLifeline;perimeter=lifelinePerimeter;whiteSpace=wrap;html=1;container=1;collapsible=0;recursiveResize=0;outlineConnect=0;rounded=1;shadow=0;comic=0;labelBackgroundColor=none;strokeWidth=1;fontFamily=Verdana;fontSize=12;align=center;" vertex="1" parent="1">
          <mxGeometry x="180" y="80" width="100" height="1460" as="geometry" />
        </mxCell>
        <mxCell id="mMHkHMFLhKj_bVexpWxE-7" value="" style="html=1;points=[];perimeter=orthogonalPerimeter;rounded=0;shadow=0;comic=0;labelBackgroundColor=none;strokeWidth=1;fontFamily=Verdana;fontSize=12;align=center;" vertex="1" parent="mMHkHMFLhKj_bVexpWxE-6">
          <mxGeometry x="45" y="100" width="10" height="1290" as="geometry" />
        </mxCell>
        <mxCell id="mMHkHMFLhKj_bVexpWxE-8" value="输入权益主订单信息" style="html=1;verticalAlign=bottom;endArrow=block;entryX=0;entryY=0;labelBackgroundColor=none;fontFamily=Verdana;fontSize=12;edgeStyle=elbowEdgeStyle;elbow=vertical;" edge="1" parent="1" source="mMHkHMFLhKj_bVexpWxE-7" target="mMHkHMFLhKj_bVexpWxE-3">
          <mxGeometry relative="1" as="geometry">
            <mxPoint x="480" y="190" as="sourcePoint" />
          </mxGeometry>
        </mxCell>
        <mxCell id="mMHkHMFLhKj_bVexpWxE-9" value="读取数据库权益主订单信息" style="html=1;verticalAlign=bottom;endArrow=block;entryX=0;entryY=0;labelBackgroundColor=none;fontFamily=Verdana;fontSize=12;edgeStyle=elbowEdgeStyle;elbow=vertical;" edge="1" parent="1" source="mMHkHMFLhKj_bVexpWxE-3" target="mMHkHMFLhKj_bVexpWxE-5">
          <mxGeometry relative="1" as="geometry">
            <mxPoint x="630" y="200" as="sourcePoint" />
          </mxGeometry>
        </mxCell>
        <mxCell id="mMHkHMFLhKj_bVexpWxE-10" value="" style="html=1;verticalAlign=bottom;endArrow=open;dashed=1;endSize=8;" edge="1" parent="1">
          <mxGeometry relative="1" as="geometry">
            <mxPoint x="860" y="269" as="sourcePoint" />
            <mxPoint x="560" y="269" as="targetPoint" />
          </mxGeometry>
        </mxCell>
        <mxCell id="mMHkHMFLhKj_bVexpWxE-11" value="" style="html=1;verticalAlign=bottom;endArrow=open;dashed=1;endSize=8;entryX=1.2;entryY=0.387;entryDx=0;entryDy=0;entryPerimeter=0;" edge="1" parent="1">
          <mxGeometry relative="1" as="geometry">
            <mxPoint x="538" y="340" as="sourcePoint" />
            <mxPoint x="235" y="340.01" as="targetPoint" />
          </mxGeometry>
        </mxCell>
        <mxCell id="mMHkHMFLhKj_bVexpWxE-12" value="输出权益主订单信息" style="edgeLabel;html=1;align=center;verticalAlign=middle;resizable=0;points=[];" vertex="1" connectable="0" parent="mMHkHMFLhKj_bVexpWxE-11">
          <mxGeometry x="0.1023" y="-1" relative="1" as="geometry">
            <mxPoint x="6" y="-10.010000000000002" as="offset" />
          </mxGeometry>
        </mxCell>
        <mxCell id="mMHkHMFLhKj_bVexpWxE-13" value="" style="html=1;points=[];perimeter=orthogonalPerimeter;rounded=0;shadow=0;comic=0;labelBackgroundColor=none;strokeWidth=1;fontFamily=Verdana;fontSize=12;align=center;" vertex="1" parent="1">
          <mxGeometry x="545" y="420" width="10" height="180" as="geometry" />
        </mxCell>
        <mxCell id="mMHkHMFLhKj_bVexpWxE-14" value="" style="html=1;points=[];perimeter=orthogonalPerimeter;rounded=0;shadow=0;comic=0;labelBackgroundColor=none;strokeWidth=1;fontFamily=Verdana;fontSize=12;align=center;" vertex="1" parent="1">
          <mxGeometry x="865" y="440" width="10" height="110" as="geometry" />
        </mxCell>
        <mxCell id="mMHkHMFLhKj_bVexpWxE-15" value="输入权益子订单信息" style="html=1;verticalAlign=bottom;endArrow=block;entryX=0;entryY=0;labelBackgroundColor=none;fontFamily=Verdana;fontSize=12;edgeStyle=elbowEdgeStyle;elbow=vertical;" edge="1" parent="1" target="mMHkHMFLhKj_bVexpWxE-13">
          <mxGeometry relative="1" as="geometry">
            <mxPoint x="235" y="420" as="sourcePoint" />
          </mxGeometry>
        </mxCell>
        <mxCell id="mMHkHMFLhKj_bVexpWxE-16" value="读取数据库权益子订单信息" style="html=1;verticalAlign=bottom;endArrow=block;entryX=0;entryY=0;labelBackgroundColor=none;fontFamily=Verdana;fontSize=12;edgeStyle=elbowEdgeStyle;elbow=vertical;" edge="1" parent="1" source="mMHkHMFLhKj_bVexpWxE-13" target="mMHkHMFLhKj_bVexpWxE-14">
          <mxGeometry relative="1" as="geometry">
            <mxPoint x="630" y="440" as="sourcePoint" />
          </mxGeometry>
        </mxCell>
        <mxCell id="mMHkHMFLhKj_bVexpWxE-17" value="" style="html=1;verticalAlign=bottom;endArrow=open;dashed=1;endSize=8;" edge="1" parent="1">
          <mxGeometry relative="1" as="geometry">
            <mxPoint x="860" y="509" as="sourcePoint" />
            <mxPoint x="560" y="509" as="targetPoint" />
          </mxGeometry>
        </mxCell>
        <mxCell id="mMHkHMFLhKj_bVexpWxE-18" value="" style="html=1;verticalAlign=bottom;endArrow=open;dashed=1;endSize=8;entryX=1.2;entryY=0.387;entryDx=0;entryDy=0;entryPerimeter=0;" edge="1" parent="1">
          <mxGeometry relative="1" as="geometry">
            <mxPoint x="538" y="580" as="sourcePoint" />
            <mxPoint x="235" y="580.01" as="targetPoint" />
          </mxGeometry>
        </mxCell>
        <mxCell id="mMHkHMFLhKj_bVexpWxE-19" value="输出权益子订单信息" style="edgeLabel;html=1;align=center;verticalAlign=middle;resizable=0;points=[];" vertex="1" connectable="0" parent="mMHkHMFLhKj_bVexpWxE-18">
          <mxGeometry x="0.1023" y="-1" relative="1" as="geometry">
            <mxPoint x="6" y="-10.010000000000002" as="offset" />
          </mxGeometry>
        </mxCell>
        <mxCell id="mMHkHMFLhKj_bVexpWxE-20" value="" style="html=1;points=[];perimeter=orthogonalPerimeter;rounded=0;shadow=0;comic=0;labelBackgroundColor=none;strokeWidth=1;fontFamily=Verdana;fontSize=12;align=center;" vertex="1" parent="1">
          <mxGeometry x="545" y="660" width="10" height="180" as="geometry" />
        </mxCell>
        <mxCell id="mMHkHMFLhKj_bVexpWxE-21" value="" style="html=1;points=[];perimeter=orthogonalPerimeter;rounded=0;shadow=0;comic=0;labelBackgroundColor=none;strokeWidth=1;fontFamily=Verdana;fontSize=12;align=center;" vertex="1" parent="1">
          <mxGeometry x="865" y="680" width="10" height="110" as="geometry" />
        </mxCell>
        <mxCell id="mMHkHMFLhKj_bVexpWxE-22" value="输入权益产品信息" style="html=1;verticalAlign=bottom;endArrow=block;entryX=0;entryY=0;labelBackgroundColor=none;fontFamily=Verdana;fontSize=12;edgeStyle=elbowEdgeStyle;elbow=vertical;" edge="1" parent="1" target="mMHkHMFLhKj_bVexpWxE-20">
          <mxGeometry relative="1" as="geometry">
            <mxPoint x="235" y="660" as="sourcePoint" />
          </mxGeometry>
        </mxCell>
        <mxCell id="mMHkHMFLhKj_bVexpWxE-23" value="读取数据库权益产品信息" style="html=1;verticalAlign=bottom;endArrow=block;entryX=0;entryY=0;labelBackgroundColor=none;fontFamily=Verdana;fontSize=12;edgeStyle=elbowEdgeStyle;elbow=vertical;" edge="1" parent="1" source="mMHkHMFLhKj_bVexpWxE-20" target="mMHkHMFLhKj_bVexpWxE-21">
          <mxGeometry relative="1" as="geometry">
            <mxPoint x="630" y="680" as="sourcePoint" />
          </mxGeometry>
        </mxCell>
        <mxCell id="mMHkHMFLhKj_bVexpWxE-24" value="" style="html=1;verticalAlign=bottom;endArrow=open;dashed=1;endSize=8;" edge="1" parent="1">
          <mxGeometry relative="1" as="geometry">
            <mxPoint x="860" y="748.9999999999998" as="sourcePoint" />
            <mxPoint x="560" y="748.9999999999998" as="targetPoint" />
          </mxGeometry>
        </mxCell>
        <mxCell id="mMHkHMFLhKj_bVexpWxE-25" value="" style="html=1;verticalAlign=bottom;endArrow=open;dashed=1;endSize=8;entryX=1.2;entryY=0.387;entryDx=0;entryDy=0;entryPerimeter=0;" edge="1" parent="1">
          <mxGeometry relative="1" as="geometry">
            <mxPoint x="538" y="820" as="sourcePoint" />
            <mxPoint x="235" y="820.0099999999998" as="targetPoint" />
          </mxGeometry>
        </mxCell>
        <mxCell id="mMHkHMFLhKj_bVexpWxE-26" value="输出权益产品信息" style="edgeLabel;html=1;align=center;verticalAlign=middle;resizable=0;points=[];" vertex="1" connectable="0" parent="mMHkHMFLhKj_bVexpWxE-25">
          <mxGeometry x="0.1023" y="-1" relative="1" as="geometry">
            <mxPoint x="6" y="-10.010000000000002" as="offset" />
          </mxGeometry>
        </mxCell>
        <mxCell id="mMHkHMFLhKj_bVexpWxE-27" value="" style="html=1;points=[];perimeter=orthogonalPerimeter;rounded=0;shadow=0;comic=0;labelBackgroundColor=none;strokeWidth=1;fontFamily=Verdana;fontSize=12;align=center;" vertex="1" parent="1">
          <mxGeometry x="545" y="970" width="10" height="180" as="geometry" />
        </mxCell>
        <mxCell id="mMHkHMFLhKj_bVexpWxE-28" value="" style="html=1;points=[];perimeter=orthogonalPerimeter;rounded=0;shadow=0;comic=0;labelBackgroundColor=none;strokeWidth=1;fontFamily=Verdana;fontSize=12;align=center;" vertex="1" parent="1">
          <mxGeometry x="865" y="990" width="10" height="110" as="geometry" />
        </mxCell>
        <mxCell id="mMHkHMFLhKj_bVexpWxE-29" value="输入权益订单渠道信息" style="html=1;verticalAlign=bottom;endArrow=block;entryX=0;entryY=0;labelBackgroundColor=none;fontFamily=Verdana;fontSize=12;edgeStyle=elbowEdgeStyle;elbow=vertical;" edge="1" parent="1" target="mMHkHMFLhKj_bVexpWxE-27">
          <mxGeometry relative="1" as="geometry">
            <mxPoint x="235" y="970" as="sourcePoint" />
          </mxGeometry>
        </mxCell>
        <mxCell id="mMHkHMFLhKj_bVexpWxE-30" value="读取数据库权益订单渠道信息" style="html=1;verticalAlign=bottom;endArrow=block;entryX=0;entryY=0;labelBackgroundColor=none;fontFamily=Verdana;fontSize=12;edgeStyle=elbowEdgeStyle;elbow=vertical;" edge="1" parent="1" source="mMHkHMFLhKj_bVexpWxE-27" target="mMHkHMFLhKj_bVexpWxE-28">
          <mxGeometry relative="1" as="geometry">
            <mxPoint x="630" y="990" as="sourcePoint" />
          </mxGeometry>
        </mxCell>
        <mxCell id="mMHkHMFLhKj_bVexpWxE-31" value="" style="html=1;verticalAlign=bottom;endArrow=open;dashed=1;endSize=8;" edge="1" parent="1">
          <mxGeometry relative="1" as="geometry">
            <mxPoint x="860" y="1058.9999999999998" as="sourcePoint" />
            <mxPoint x="560" y="1058.9999999999998" as="targetPoint" />
          </mxGeometry>
        </mxCell>
        <mxCell id="mMHkHMFLhKj_bVexpWxE-32" value="" style="html=1;verticalAlign=bottom;endArrow=open;dashed=1;endSize=8;entryX=1.2;entryY=0.387;entryDx=0;entryDy=0;entryPerimeter=0;" edge="1" parent="1">
          <mxGeometry relative="1" as="geometry">
            <mxPoint x="538" y="1130" as="sourcePoint" />
            <mxPoint x="235" y="1130.0100000000002" as="targetPoint" />
          </mxGeometry>
        </mxCell>
        <mxCell id="mMHkHMFLhKj_bVexpWxE-33" value="输出权益订单渠道信息" style="edgeLabel;html=1;align=center;verticalAlign=middle;resizable=0;points=[];" vertex="1" connectable="0" parent="mMHkHMFLhKj_bVexpWxE-32">
          <mxGeometry x="0.1023" y="-1" relative="1" as="geometry">
            <mxPoint x="6" y="-10.010000000000002" as="offset" />
          </mxGeometry>
        </mxCell>
        <mxCell id="mMHkHMFLhKj_bVexpWxE-34" value="" style="html=1;points=[];perimeter=orthogonalPerimeter;rounded=0;shadow=0;comic=0;labelBackgroundColor=none;strokeWidth=1;fontFamily=Verdana;fontSize=12;align=center;" vertex="1" parent="1">
          <mxGeometry x="545" y="1220" width="10" height="180" as="geometry" />
        </mxCell>
        <mxCell id="mMHkHMFLhKj_bVexpWxE-35" value="" style="html=1;points=[];perimeter=orthogonalPerimeter;rounded=0;shadow=0;comic=0;labelBackgroundColor=none;strokeWidth=1;fontFamily=Verdana;fontSize=12;align=center;" vertex="1" parent="1">
          <mxGeometry x="865" y="1240" width="10" height="110" as="geometry" />
        </mxCell>
        <mxCell id="mMHkHMFLhKj_bVexpWxE-36" value="输入权益订单查询记录信息" style="html=1;verticalAlign=bottom;endArrow=block;entryX=0;entryY=0;labelBackgroundColor=none;fontFamily=Verdana;fontSize=12;edgeStyle=elbowEdgeStyle;elbow=vertical;" edge="1" parent="1" target="mMHkHMFLhKj_bVexpWxE-34">
          <mxGeometry relative="1" as="geometry">
            <mxPoint x="235" y="1220" as="sourcePoint" />
          </mxGeometry>
        </mxCell>
        <mxCell id="mMHkHMFLhKj_bVexpWxE-37" value="写入数据库权益订单查询记录信息" style="html=1;verticalAlign=bottom;endArrow=block;entryX=0;entryY=0;labelBackgroundColor=none;fontFamily=Verdana;fontSize=12;edgeStyle=elbowEdgeStyle;elbow=vertical;" edge="1" parent="1" source="mMHkHMFLhKj_bVexpWxE-34" target="mMHkHMFLhKj_bVexpWxE-35">
          <mxGeometry relative="1" as="geometry">
            <mxPoint x="630" y="1240" as="sourcePoint" />
          </mxGeometry>
        </mxCell>
        <mxCell id="mMHkHMFLhKj_bVexpWxE-38" value="" style="html=1;verticalAlign=bottom;endArrow=open;dashed=1;endSize=8;" edge="1" parent="1">
          <mxGeometry relative="1" as="geometry">
            <mxPoint x="860" y="1309" as="sourcePoint" />
            <mxPoint x="560" y="1309" as="targetPoint" />
          </mxGeometry>
        </mxCell>
        <mxCell id="mMHkHMFLhKj_bVexpWxE-39" value="输出历史数据清洗账号信息" style="html=1;verticalAlign=bottom;endArrow=open;dashed=1;endSize=8;entryX=1.2;entryY=0.387;entryDx=0;entryDy=0;entryPerimeter=0;" edge="1" parent="1">
          <mxGeometry relative="1" as="geometry">
            <mxPoint x="538" y="1380" as="sourcePoint" />
            <mxPoint x="235" y="1380.0100000000002" as="targetPoint" />
          </mxGeometry>
        </mxCell>
        <mxCell id="mMHkHMFLhKj_bVexpWxE-40" value="输出写入权益订单查询记录结果" style="edgeLabel;html=1;align=center;verticalAlign=middle;resizable=0;points=[];" vertex="1" connectable="0" parent="mMHkHMFLhKj_bVexpWxE-39">
          <mxGeometry x="0.1023" y="-1" relative="1" as="geometry">
            <mxPoint x="6" y="-10.010000000000002" as="offset" />
          </mxGeometry>
        </mxCell>
      </root>
    </mxGraphModel>
  </diagram>
  <diagram id="1Qzx-wQJqzeN6gffcwI0" name="套餐订单查询管理">
    <mxGraphModel dx="1182" dy="582" grid="1" gridSize="10" guides="1" tooltips="1" connect="1" arrows="1" fold="1" page="1" pageScale="1" pageWidth="827" pageHeight="1169" math="0" shadow="0">
      <root>
        <mxCell id="2hz2CDZDJcAwacNgqfws-0" />
        <mxCell id="2hz2CDZDJcAwacNgqfws-1" parent="2hz2CDZDJcAwacNgqfws-0" />
      </root>
    </mxGraphModel>
  </diagram>
  <diagram id="sQ_12blfWccA-8C4InTz" name="权益中台主订单和子订单查询">
    <mxGraphModel dx="1182" dy="582" grid="1" gridSize="10" guides="1" tooltips="1" connect="1" arrows="1" fold="1" page="1" pageScale="1" pageWidth="827" pageHeight="1169" math="0" shadow="0">
      <root>
        <mxCell id="c-qAWn3ROH52DJeck91L-0" />
        <mxCell id="c-qAWn3ROH52DJeck91L-1" parent="c-qAWn3ROH52DJeck91L-0" />
      </root>
    </mxGraphModel>
  </diagram>
  <diagram id="5Ybof2BgvRjcOUZXa0Zn" name="权益中台主订单和领取记录查询">
    <mxGraphModel dx="1182" dy="582" grid="1" gridSize="10" guides="1" tooltips="1" connect="1" arrows="1" fold="1" page="1" pageScale="1" pageWidth="827" pageHeight="1169" math="0" shadow="0">
      <root>
        <mxCell id="UqWTSxAudl7CIPdMWpHK-0" />
        <mxCell id="UqWTSxAudl7CIPdMWpHK-1" parent="UqWTSxAudl7CIPdMWpHK-0" />
      </root>
    </mxGraphModel>
  </diagram>
</mxfile>
